<svg width="762" height="950" viewBox="0 0 762 950" fill="none" xmlns="http://www.w3.org/2000/svg">
<path d="M519.5 306L638.5 375.5M519.5 306L638.5 236L759 306M519.5 306V440L405 504.5M638.5 375.5L759 306M638.5 375.5V509.5M759 306V440L645 505.751M638.5 509.5L525 575M638.5 509.5L645 505.751M405 504.5L525 575M405 504.5V644.5L525 715M525 575V715M645 505.751V644.5L525 715" stroke="white" stroke-width="6"/>
<path d="M241.823 414.155L361.16 344.459M241.823 414.155L361.16 484.353L482 414.155M241.823 414.155L241.823 279.777L127 215.095M361.16 344.459L482 414.155M361.16 344.459L361.16 210.081M482 414.155L482 279.777L367.678 213.84M361.16 210.081L247.339 144.396M361.16 210.081L367.678 213.84M127 215.095L247.339 144.396M127 215.095L127 74.6992L247.339 4.00003M247.339 144.396L247.339 4.00003M367.678 213.84L367.678 74.6992L247.339 4.00003" stroke="white" stroke-width="6"/>
<path d="M117.5 537L236.5 606.5M117.5 537L236.5 467L357 537M117.5 537V671L3 735.5M236.5 606.5L357 537M236.5 606.5V740.5M357 537V671L243 736.751M236.5 740.5L123 806M236.5 740.5L243 736.751M3 735.5L123 806M3 735.5V875.5L123 946M123 806V946M243 736.751V875.5L123 946" stroke="white" stroke-width="6"/>
</svg>
